<svg xmlns="http://www.w3.org/2000/svg" viewBox="0 0 66.72 74.48"><defs><style>.cls-1{fill:none;stroke:#231f20;stroke-linecap:round;stroke-linejoin:round;stroke-width:1.5px;}</style></defs><title>Asset 12</title><g id="Layer_2" data-name="Layer 2"><g id="Layer_1-2" data-name="Layer 1"><rect class="cls-1" x="0.75" y="0.75" width="65.22" height="72.98" rx="3.29"/><polygon class="cls-1" points="14.22 21.76 10.69 23.62 11.37 19.68 8.51 16.9 12.46 16.32 14.22 12.74 15.99 16.32 19.94 16.9 17.08 19.68 17.76 23.62 14.22 21.76"/><line class="cls-1" x1="25.66" y1="18.18" x2="58.22" y2="18.18"/><polygon class="cls-1" points="14.22 40.82 10.69 42.68 11.37 38.74 8.51 35.96 12.46 35.38 14.22 31.8 15.99 35.38 19.94 35.96 17.08 38.74 17.76 42.68 14.22 40.82"/><line class="cls-1" x1="25.66" y1="37.24" x2="58.22" y2="37.24"/><polygon class="cls-1" points="14.22 59.88 10.69 61.74 11.37 57.8 8.51 55.01 12.46 54.44 14.22 50.86 15.99 54.44 19.94 55.01 17.08 57.8 17.76 61.74 14.22 59.88"/><line class="cls-1" x1="25.66" y1="56.3" x2="58.22" y2="56.3"/></g></g></svg>